<svg version="1.2" xmlns="http://www.w3.org/2000/svg" viewBox="0 0 41 40"><defs><clipPath clipPathUnits="userSpaceOnUse" id="cp1"><path d="m0 16.52h40.87v5.78h-40.87z"/></clipPath><clipPath clipPathUnits="userSpaceOnUse" id="cp2"><path d="m8.34 0.67h24.18v3.9h-24.18z"/></clipPath></defs><style>.a{fill:#ff7a00}</style><g clip-path="url(#cp1)"><path fill-rule="evenodd" class="a" d="m38.2 19.7c0.8-0.2 1.2-0.2 1.6-0.4 0.6-0.2 1.1-0.7 1.1-1.3 0-0.7-0.5-1.2-1.1-1.4-0.4-0.2-1.1 0-1.6 0l-15.8 1.6c-1.3 0.1-2.7 0.1-4 0l-15.7-1.6c-0.5 0-1.2-0.2-1.7 0-0.6 0.2-1 0.7-1 1.4 0 0.6 0.4 1.1 1 1.3 0.5 0.2 0.8 0.2 1.7 0.4l15 2.4c1.8 0.3 3.6 0.3 5.4 0z"/></g><path fill-rule="evenodd" class="a" d="m35.4 12.5c0.5-0.1 1.2-0.1 1.7-0.2 0.6-0.2 1-0.8 1-1.4 0-0.7-0.4-1.2-1-1.4-0.5-0.1-1.2-0.1-1.7-0.1h-29.9c-0.5 0-1.2 0-1.7 0.1-0.6 0.2-1 0.7-1 1.4 0 0.6 0.4 1.2 1 1.4 0.5 0.1 1.2 0.1 1.7 0.2l13.3 0.9c1.1 0.1 2.2 0.1 3.3 0z"/><g clip-path="url(#cp2)"><path fill-rule="evenodd" class="a" d="m25.1 0.9q-4.7-0.5-9.4 0l-4.6 0.6c-0.5 0-1.3 0.1-1.7 0.2-0.5 0.2-1.1 0.6-1.1 1.4 0 0.6 0.5 1.2 1.1 1.3 0.5 0.2 1.2 0.2 1.7 0.2h18.7c0.5 0 1.2 0 1.7-0.2 0.6-0.1 1-0.7 1-1.3 0-0.8-0.5-1.2-1-1.4-0.5-0.1-1.2-0.2-1.7-0.2z"/></g><path fill-rule="evenodd" class="a" d="m17.3 30.7c2.1 0.5 4.2 0.5 6.2 0l13.7-3.3c0.8-0.2 1.2-0.3 1.6-0.4 0.7-0.2 1.1-0.7 1.1-1.4 0-0.7-0.4-1.2-1.1-1.4-0.4-0.1-1.1 0-1.6 0.1l-14.8 2.7c-1.3 0.2-2.7 0.2-4 0l-14.7-2.7c-0.5-0.1-1.2-0.2-1.7-0.1-0.6 0.2-1 0.7-1 1.4 0 0.7 0.4 1.2 1 1.4 0.5 0.1 0.8 0.2 1.7 0.4z"/><path fill-rule="evenodd" class="a" d="m33.1 36.2c0.9-0.3 1.3-0.4 1.7-0.6 0.6-0.3 1-0.7 1-1.4 0-0.6-0.4-1.2-1-1.4-0.6-0.1-1.2 0.1-1.7 0.2l-9.2 2.5c-2.3 0.6-4.7 0.6-6.9 0l-9.2-2.5c-0.5-0.1-1.2-0.3-1.7-0.2-0.6 0.2-1.1 0.8-1.1 1.4 0 0.7 0.5 1.1 1.1 1.4 0.4 0.2 0.7 0.3 1.7 0.6l8.7 3.1c2.5 0.9 5.3 0.9 7.8 0z"/></svg>